<?xml version="1.0" encoding="UTF-8" standalone="no"?>
<!-- Created with Inkscape (http://www.inkscape.org/) -->

<svg
   xmlns:dc="http://purl.org/dc/elements/1.1/"
   xmlns:cc="http://creativecommons.org/ns#"
   xmlns:rdf="http://www.w3.org/1999/02/22-rdf-syntax-ns#"
   xmlns:svg="http://www.w3.org/2000/svg"
   xmlns="http://www.w3.org/2000/svg"
   xmlns:xlink="http://www.w3.org/1999/xlink"
   xmlns:sodipodi="http://sodipodi.sourceforge.net/DTD/sodipodi-0.dtd"
   xmlns:inkscape="http://www.inkscape.org/namespaces/inkscape"
   width="210mm"
   height="210mm"
   viewBox="0 0 210 210"
   version="1.1"
   id="svg8"
   inkscape:version="0.92.3 (2405546, 2018-03-11)"
   sodipodi:docname="Logo.svg">
  <defs
     id="defs2" />
  <sodipodi:namedview
     id="base"
     pagecolor="#ffffff"
     bordercolor="#666666"
     borderopacity="1.0"
     inkscape:pageopacity="0.0"
     inkscape:pageshadow="2"
     inkscape:zoom="0.7"
     inkscape:cx="-3.9565032"
     inkscape:cy="358.87208"
     inkscape:document-units="mm"
     inkscape:current-layer="layer1"
     showgrid="false"
     inkscape:window-width="1920"
     inkscape:window-height="1062"
     inkscape:window-x="0"
     inkscape:window-y="18"
     inkscape:window-maximized="1" />
  <metadata
     id="metadata5">
    <rdf:RDF>
      <cc:Work
         rdf:about="">
        <dc:format>image/svg+xml</dc:format>
        <dc:type
           rdf:resource="http://purl.org/dc/dcmitype/StillImage" />
        <dc:title></dc:title>
      </cc:Work>
    </rdf:RDF>
  </metadata>
  <g
     inkscape:label="Ebene 1"
     inkscape:groupmode="layer"
     id="layer1"
     transform="translate(0,-87)">
    <g
       id="layer1-8"
       transform="matrix(1.8081114,0,0,1.3378744,50.360791,108.26385)">
      <g
         id="g9007">
        <path
           id="path8104"
           style="fill:#008000;fill-opacity:1;stroke:none;stroke-linecap:round;stroke-linejoin:round"
           transform="matrix(1.168,0,0,1.359712,-7.440326,-0.187421)"
           d="m 44.287651,12.591587 a 10.854816,12.070565 0 1 1 -21.709633,0 10.854817,12.070559 0 1 1 21.709633,0 z"
           inkscape:connector-curvature="0" />
        <path
           id="path8108"
           style="fill:#008000;fill-opacity:1;stroke:none;stroke-linecap:round;stroke-linejoin:round"
           transform="matrix(0.924445,0,0,1.265537,-1.746033,-2.14496)"
           d="m 45.850748,33.259159 a 19.538671,15.37042 0 1 1 -39.0773429,0 19.538671,15.37042 0 1 1 39.0773429,0 z"
           inkscape:connector-curvature="0" />
        <path
           id="path8110"
           style="fill:#008000;fill-opacity:1;stroke:none;stroke-linecap:round;stroke-linejoin:round"
           transform="matrix(1.477778,0,0,1.258772,-3.759143,-5.557669)"
           d="m 34.040706,59.397556 a 15.630937,19.799187 0 1 1 -31.2618736,0 15.630937,19.799187 0 1 1 31.2618736,0 z"
           inkscape:connector-curvature="0" />
        <path
           id="path8114"
           style="fill:#008000;fill-opacity:1;stroke:none;stroke-linecap:round;stroke-linejoin:round"
           transform="matrix(1.121019,0,0,1.140541,-1.836331,-2.123554)"
           d="m 56.792402,31.175034 a 13.63365,16.065128 0 1 1 -27.267299,0 13.63365,16.065128 0 1 1 27.267299,0 z"
           inkscape:connector-curvature="0" />
        <path
           id="path8116"
           style="fill:#008000;fill-opacity:1;stroke:none;stroke-linecap:round;stroke-linejoin:round"
           transform="matrix(1.073733,0,0,1.141732,-3.432724,-6.255109)"
           d="m 63.044775,63.739483 a 18.843962,22.056988 0 1 1 -37.687923,0 18.843962,22.056988 0 1 1 37.687923,0 z"
           inkscape:connector-curvature="0" />
        <rect
           id="rect8118"
           style="fill:#008000;fill-opacity:1;stroke:none;stroke-linecap:round;stroke-linejoin:round"
           y="123"
           x="7"
           height="5"
           width="50" />
        <rect
           id="rect8120"
           style="fill:#008000;fill-opacity:1;stroke:none;stroke-linecap:round;stroke-linejoin:round"
           y="62.350063"
           x="27"
           height="64.781548"
           width="10" />
      </g>
    </g>
    <g
       id="g1491"
       transform="matrix(0.3198625,0,0,0.31591798,104.92271,191.05798)">
      <rect
         id="rect1466"
         style="fill:none;stroke:none;stroke-width:1.46410012"
         y="-314.78152"
         x="-314.07541"
         height="629.56305"
         width="629.56305" />
      <circle
         id="circle1468"
         style="fill:none;stroke:#ff0000;stroke-width:8.7845993;stroke-linecap:round;stroke-opacity:1"
         r="292.82001"
         cy="-7.3049955e-06"
         cx="0.70606267" />
      <path
         style="fill:none;stroke:#ff0000;stroke-width:8.7845993;stroke-linecap:round;stroke-opacity:1"
         d="m -109.10144,-23.425608 v 46.8512 m -73.20499,-46.8512 v 46.8512 m -73.205,-46.8512 v 46.8512 M -314.07543,-7.3049954e-6 h 241.576492"
         id="Crosshairs"
         inkscape:connector-curvature="0" />
      <use
         id="use1471"
         transform="rotate(90,0.70606273,-7.3049954e-6)"
         xlink:href="#Crosshairs"
         x="0"
         y="0"
         width="100%"
         height="100%" />
      <use
         id="use1473"
         transform="scale(-1)"
         xlink:href="#Crosshairs"
         x="0"
         y="0"
         width="100%"
         height="100%" />
      <use
         id="use1475"
         transform="rotate(-90,0.70606273,-7.3049954e-6)"
         xlink:href="#Crosshairs"
         x="0"
         y="0"
         width="100%"
         height="100%" />
    </g>
  </g>
</svg>
